<?xml version="1.0" encoding="UTF-8" standalone="no"?>
<!-- Created with Inkscape (http://www.inkscape.org/) -->

<svg
   xmlns:dc="http://purl.org/dc/elements/1.1/"
   xmlns:cc="http://creativecommons.org/ns#"
   xmlns:rdf="http://www.w3.org/1999/02/22-rdf-syntax-ns#"
   xmlns:svg="http://www.w3.org/2000/svg"
   xmlns="http://www.w3.org/2000/svg"
   xmlns:sodipodi="http://sodipodi.sourceforge.net/DTD/sodipodi-0.dtd"
   xmlns:inkscape="http://www.inkscape.org/namespaces/inkscape"
   version="1.1"
   id="svg71059"
   width="188"
   height="188"
   viewBox="0 0 188 188"
   sodipodi:docname="b.svg"
   inkscape:version="0.92.4 5da689c313, 2019-01-14">
  <metadata
     id="metadata71065">
    <rdf:RDF>
      <cc:Work
         rdf:about="">
        <dc:format>image/svg+xml</dc:format>
        <dc:type
           rdf:resource="http://purl.org/dc/dcmitype/StillImage" />
        <dc:title></dc:title>
      </cc:Work>
    </rdf:RDF>
  </metadata>
  <defs
     id="defs71063" />
  <sodipodi:namedview
     pagecolor="#ffffff"
     bordercolor="#666666"
     borderopacity="1"
     objecttolerance="10"
     gridtolerance="10"
     guidetolerance="10"
     inkscape:pageopacity="0"
     inkscape:pageshadow="2"
     inkscape:window-width="1366"
     inkscape:window-height="703"
     id="namedview71061"
     showgrid="false"
     inkscape:zoom="1.2553191"
     inkscape:cx="94"
     inkscape:cy="94"
     inkscape:window-x="0"
     inkscape:window-y="0"
     inkscape:window-maximized="1"
     inkscape:current-layer="svg71059" />
  <g
     id="g71094"
     transform="translate(0.01242632)">
    <path
       style="fill:#eff1f2"
       d="M 0,94 V 0 h 94 94 v 94 94 H 94 0 Z"
       id="path71106"
       inkscape:connector-curvature="0" />
    <path
       style="fill:#c6d4e8"
       d="m 6.3809283,185.50428 4.8809287,-2.33797 -3.7870823,-1.04566 C 3.1579866,180.92872 2,181.32623 2,184 c 0,1.03508 -0.4523235,2.16152 -1.00516333,2.50319 -0.67150092,0.41501 -0.92046225,-30.35362 -0.75,-92.690982 L 0.5,0.5 94,0.29648763 187.5,0.09297527 179.52944,3.4579821 171.55888,6.822989 176.77944,6.4678689 C 181.9716,6.1146803 182,6.1287595 182,9.0563744 182,11.840948 183.91659,13.405906 184.07416,10.75 184.11495,10.0625 184.98158,7.7 186,5.5 c 1.81831,-3.9279398 1.85301,-2.3345088 1.92584,88.45 0.042,52.35917 -0.30247,92.03803 -0.79435,91.5 -0.47767,-0.5225 -1.71517,-3.2 -2.75,-5.95 L 182.5,174.5 182,178 c -0.41203,2.88424 -0.96517,3.55413 -3.14406,3.80768 -3.93373,0.45776 -9.67884,-2.32489 -11.06042,-5.35713 -1.13026,-2.48064 -1.51774,-2.61241 -5.95218,-2.02416 -4.16641,0.5527 -4.88184,0.37019 -5.88317,-1.50082 -0.62698,-1.17152 -0.91039,-3.00793 -0.6298,-4.08092 0.53962,-2.06348 -1.95328,-8.37348 -5.24962,-13.28783 -1.95487,-2.9144 -1.95514,-2.9565 -0.0275,-4.3067 1.07069,-0.74994 1.94671,-2.03591 1.94671,-2.85772 0,-1.1319 0.788,-0.90297 3.25,0.94419 4.9592,3.72072 11.92756,6.74183 14.0192,6.07797 1.10424,-0.35047 2.68004,0.13452 3.83595,1.1806 1.60835,1.45553 1.84524,2.55284 1.31479,6.09013 -0.50796,3.38737 -0.3377,4.31471 0.7922,4.31471 1.77898,0 5.78786,4.14274 5.78786,5.98112 0,0.74372 0.23069,1.12153 0.51264,0.83957 0.28195,-0.28195 -0.12151,-3.84445 -0.89659,-7.91666 C 179.84097,161.83181 178.89248,154.45 178.50829,149.5 l -0.69852,-9 L 154.66295,117.25009 131.51613,94.000174 154.50807,70.993966 177.5,47.987759 178.64208,37.243879 C 179.27022,31.334746 180.12127,24.25 180.53329,21.5 l 0.74915,-5 -2.45567,2.25 c -1.35062,1.2375 -3.05034,2.25 -3.77715,2.25 -0.98887,0 -1.16782,1.121005 -0.71098,4.454006 0.71906,5.246124 -1.19316,8.050306 -4.86177,7.129544 -1.45155,-0.364315 -4.58309,0.662477 -8.92891,2.927672 C 156.86665,37.43005 153.50623,39 153.08035,39 151.87329,39 148,35.382492 148,34.255149 c 0,-0.555643 0.74813,-1.62786 1.66252,-2.382704 2.34951,-1.939578 5.77589,-9.928266 5.44835,-12.702966 -0.46375,-3.928612 2.48107,-6.182892 7.26161,-5.55881 3.84187,0.501542 4.25079,0.316664 5.90874,-2.671361 0.97968,-1.7656071 1.55592,-3.4354971 1.28055,-3.710867 -0.27537,-0.2753699 -3.10192,7.214e-4 -6.28122,0.6135362 C 160.10125,8.454792 153.675,9.2421133 149,9.5915801 l -8.5,0.6353939 -14.69572,14.569825 c -8.08265,8.013403 -14.42562,15.006862 -14.0955,15.541021 0.33013,0.534158 0.16486,0.702119 -0.36727,0.373246 -0.53213,-0.328873 -4.50802,2.976598 -8.83533,7.345492 C 98.17888,52.425451 94.378614,56 94.061146,56 93.743679,56 83.137548,45.65536 70.491966,33.011911 L 47.5,10.023823 l -5,0.132243 C 39.75,10.2288 36.825,10.038263 36,9.7326511 35.175,9.4270391 30.9,8.6582526 26.5,8.0242366 22.1,7.3902207 17.656147,6.627187 16.624771,6.3286063 15.411706,5.9774271 14.991156,6.1766736 15.433788,6.8928661 15.810123,7.5017897 16.982903,8 18.039965,8 c 1.21607,0 2.152376,0.9181659 2.549391,2.5 0.542144,2.160075 1.190593,2.501857 4.769052,2.513655 7.253209,0.02391 8.449842,0.694629 7.699713,4.315704 -0.621283,2.999093 1.27763,8.653197 3.191879,9.503974 0.4125,0.183334 0.75,1.054331 0.75,1.935549 0,0.881219 0.927463,2.589455 2.061029,3.796081 l 2.06103,2.193865 -2.364191,1.870586 c -1.300305,1.028822 -2.67459,2.686608 -3.053966,3.683968 -0.379377,0.99736 -1.172894,1.514799 -1.76337,1.149865 -0.590477,-0.364935 -0.815029,-0.922083 -0.499005,-1.238108 0.777787,-0.777787 -4.540816,-4.210305 -6.536539,-4.21855 -0.877257,-0.0036 -2.351071,-0.842024 -3.275142,-1.863111 C 22.575567,32.978513 21.06957,32.455207 19.586917,32.738634 14.145442,33.778838 11.645661,29.692382 13.975249,23.5651 14.804621,21.383685 14.673357,21 13.097694,21 12.078651,21 10.668861,20.305928 9.9648264,19.457618 7.8715371,16.935359 6.7075117,19.281163 7.9033286,23.612055 8.488278,25.730567 9.2615466,32.021768 9.6217033,37.592501 L 10.276534,47.721107 33.540787,70.976954 C 56.182783,93.610769 56.8384,94.169507 58.052224,91.866401 59.670958,88.795022 60.89573,88.03399 64.25,88.015313 66.328229,88.003741 67,87.511439 67,86 c 0,-2.812074 3.857475,-2.614733 7.06726,0.361548 3.697003,3.428055 6.367988,4.643153 10.116999,4.602477 L 87.5,90.928049 85,88.872456 c -1.375,-1.130576 -5.875,-3.928856 -10,-6.2184 -6.217798,-3.451133 -7.5,-4.58946 -7.5,-6.658432 0,-1.372593 -0.7875,-3.608252 -1.75,-4.96813 -0.9625,-1.359879 -1.75,-3.497379 -1.75,-4.75 0,-2.927834 3.688987,-3.096577 7.20657,-0.329646 1.44654,1.137848 3.320929,1.726969 4.507442,1.416689 2.361158,-0.617457 4.852869,2.448094 9.422193,11.59212 1.606781,3.215453 3.583454,6.395717 4.392607,7.067255 C 90.771144,87.054956 91,86.75144 91,84.072785 91,80.384958 89.088827,76.29535 86.102379,73.592652 83.334431,71.087693 83.270952,67 86,67 87.544536,67 88,66.333333 88,64.07258 88,61.159856 91.799877,57 94.460545,57 96.527433,57 100.25,61.78868 100.25,64.447508 100.25,66.291552 100.77912,67 102.15638,67 c 3.30787,0 3.32501,2.907013 0.0372,6.315913 C 98.804415,76.829978 97,80.780818 97,84.687544 c 0,2.218455 0.209588,2.383403 1.581601,1.244733 0.869881,-0.721937 2.951879,-4.039537 4.626659,-7.372445 4.66292,-9.279477 6.65937,-11.720309 9.30309,-11.373866 1.26146,0.165306 3.12496,-0.442085 4.14111,-1.349758 1.01615,-0.907673 2.97254,-1.804641 4.34754,-1.993261 2.10583,-0.288875 2.55147,0.10706 2.82647,2.511201 0.21078,1.842668 -0.3969,3.624148 -1.71472,5.0269 -1.28785,1.370848 -1.83893,2.946211 -1.49316,4.268435 0.6372,2.436675 -1.79897,4.429094 -11.17842,9.142257 -3.33291,1.674782 -6.65051,3.756778 -7.37245,4.626659 C 100.91754,90.804287 101.14963,91 103.9433,91 c 3.73189,0 6.33527,-1.232426 10.80604,-5.115519 C 118.1986,82.888625 121,82.959952 121,86.04363 c 0,1.319486 0.87864,1.917028 3.15113,2.143012 2.03961,0.202826 3.87216,1.283379 5.19525,3.063358 l 2.04412,2.75 -2.04412,2.75 c -1.32309,1.779979 -3.15564,2.860532 -5.19525,3.063358 C 121.87864,100.03934 121,100.63688 121,101.95637 c 0,3.08368 -2.8014,3.155 -6.25066,0.15915 C 110.27857,98.232426 107.67519,97 103.9433,97 c -2.79782,0 -3.02697,0.194256 -1.87151,1.586496 0.72417,0.872574 4.74186,3.308654 8.92821,5.413504 8.52302,4.28529 10.43832,6.04361 9.56848,8.78423 -0.37779,1.19032 0.14228,2.54903 1.41738,3.70298 1.11976,1.01336 2.01414,3.0861 2.01414,4.66778 0,2.47878 -0.37684,2.84501 -2.92742,2.84501 -1.87994,0 -3.58746,-0.83911 -4.77206,-2.34507 -1.49351,-1.8987 -2.18547,-2.13663 -3.63523,-1.25 -2.26329,1.38416 -4.52242,-1.18666 -9.19402,-10.46249 -1.81642,-3.60666 -4.015543,-7.14926 -4.88693,-7.87244 -1.392597,-1.15576 -1.583888,-0.90674 -1.580602,2.05756 0.0037,3.35179 3.187972,9.87244 4.821052,9.87244 1.18762,0 3.32742,4.94471 2.6289,6.07494 -0.31445,0.50878 -1.38892,0.92506 -2.38771,0.92506 -1.30527,0 -1.81598,0.75767 -1.81598,2.6941 0,2.49495 -4.063555,7.3059 -6.170905,7.3059 C 91.746322,131 88,126.64143 88,123.92742 88,121.72182 87.533238,121 86.106989,121 82.964561,121 82.865774,118.2249 85.884481,114.74934 89.767574,110.27857 91,107.67519 91,103.9433 c 0,-2.79367 -0.195713,-3.02576 -1.581601,-1.87558 -0.869881,0.72194 -2.951877,4.03954 -4.626659,7.37245 -4.667702,9.28898 -6.714536,11.81328 -9.077728,11.19529 -1.186513,-0.31028 -3.060902,0.27884 -4.507442,1.41669 C 67.688987,124.81908 64,124.65034 64,121.72251 c 0,-1.25263 0.764442,-3.36889 1.69876,-4.70282 0.934317,-1.33392 1.721817,-3.56422 1.75,-4.95621 0.04033,-1.99218 1.221961,-3.20959 5.55124,-5.71934 13.486824,-7.818533 14.697373,-8.728824 12.148287,-9.13509 -3.773677,-0.601438 -6.636732,0.529423 -10.774312,4.25568 -4.444835,4.00298 -6.335511,4.39836 -7.097561,1.48428 -0.330287,-1.26302 -1.650728,-2.27387 -3.436932,-2.63111 -1.595321,-0.319068 -3.7391,-1.646121 -4.763953,-2.94901 C 58.050676,96.066 56.82097,95 56.342849,95 55.864728,95 45.241992,105.25302 32.736769,117.7845 L 10,140.56899 9.9454885,145.5345 c -0.029981,2.73102 -0.61172,8.66564 -1.2927526,13.18804 -1.3346466,8.86272 -1.0034833,9.70496 3.3666001,8.56215 1.965584,-0.51401 2.148209,-1.04566 1.637958,-4.76835 -0.763722,-5.57196 1.326108,-8.85335 4.797822,-7.5334 2.681524,1.01951 10.279563,-2.121 14.257494,-5.89307 2.171219,-2.05886 2.231998,-2.06189 3.248939,-0.16172 0.569981,1.06502 1.913843,2.21491 2.986361,2.55532 2.06081,0.65407 1.842869,3.13205 -0.441509,5.01991 -2.715153,2.24388 -5.945537,10.04944 -5.651121,13.65479 0.354139,4.33671 -1.585194,5.40115 -7.897453,4.3347 C 21.616609,173.92838 21,174.09336 21,175.55186 c 0,0.95021 -0.786792,2.30297 -1.748428,3.00614 -3.184713,2.32872 -0.515734,2.63989 8.847487,1.03151 C 33.188414,178.71528 39.632118,178 42.418401,178 H 47.48437 L 70.742185,154.75798 94,131.51596 l 23.25,23.12368 c 23.20819,23.08209 23.25809,23.12388 27.75,23.2368 9.21198,0.23158 29.01704,4.22284 35.28339,7.11057 l 6.21661,2.86481 -92.5,-0.005 -92.5,-0.005 4.8809283,-2.33798 z M 6,179 c 0,-0.55 -0.45,-1 -1,-1 -0.55,0 -1,0.45 -1,1 0,0.55 0.45,1 1,1 0.55,0 1,-0.45 1,-1 z m 2.5,-9 C 8.8399187,169.45 8.6414763,169 8.059017,169 7.4765576,169 7,169.45 7,170 c 0,0.55 0.1984424,1 0.440983,1 0.2425407,0 0.7190983,-0.45 1.059017,-1 z M 6,8.5496901 C 6,7.2020197 6.7733043,5.6666174 7.7184541,5.137685 9.1911579,4.3135185 8.9069405,3.9232658 5.7310115,2.4087708 1.1227201,0.2112298 0.2764543,0.95546817 2.3690906,5.3653718 3.2660908,7.2556594 4,9.2967501 4,9.9011291 4,10.505508 4.45,11 5,11 5.55,11 6,9.8973606 6,8.5496901 Z M 49.973786,156.93671 c -0.738354,-1.78254 -0.916503,-4.71778 -0.47928,-7.89677 0.662079,-4.81389 0.537306,-5.2078 -2.568552,-8.10911 -2.85421,-2.66623 -3.74583,-2.96811 -7.095195,-2.40224 C 35.323339,139.29012 28,138.24819 28,136.84538 c 0,-0.53835 1.17127,-2.51444 2.602822,-4.3913 2.142434,-2.80887 3.478722,-3.52867 7.554764,-4.06937 3.410962,-0.45248 4.800234,-1.05225 4.464429,-1.92734 -0.798875,-2.08184 4.566125,-3.7844 7.587371,-2.40783 1.844325,0.84033 3.091294,0.85991 4.56416,0.0717 1.58511,-0.84832 2.15038,-0.76182 2.595108,0.39712 0.312717,0.81493 1.21325,1.48169 2.001185,1.48169 1.93979,0 5.724018,6.50614 4.497575,7.73259 -0.58898,0.58898 -0.543696,1.98865 0.120892,3.73665 1.318826,3.46878 0.518191,6.23523 -2.039458,7.047 C 60.494054,144.97797 60,146.04443 60,148.723 c 0,4.03689 -3.699747,9.70371 -6.877973,10.53484 -1.471174,0.38472 -2.272011,-0.20572 -3.148241,-2.32113 z m 83.457484,1.17936 C 130.55478,156.36678 128,150.96579 128,146.63398 128,145.73529 127.58214,145 127.07143,145 c -2.44531,0 -3.86186,-2.99533 -3.07225,-6.49636 0.44056,-1.95341 0.58248,-4.38735 0.31538,-5.40877 -0.77353,-2.95796 5.84215,-8.95402 9.90014,-8.9729 1.80692,-0.008 4.6353,-0.1518 6.2853,-0.31863 2.28205,-0.23075 3.22629,0.21202 3.94556,1.85012 0.6338,1.44343 2.17444,2.34997 4.67261,2.74945 4.04843,0.64736 9.88183,4.90398 9.88183,7.21073 0,2.26387 -4.95142,3.6647 -9.5,2.68771 -7.6137,-1.63536 -12.26236,3.43206 -10.98185,11.97112 0.45334,3.02305 0.22824,5.33347 -0.69044,7.08683 l -1.36306,2.60149 z M 44.562237,63.41938 c -0.869341,-0.869341 -1.359815,-1.937888 -1.089944,-2.37455 0.269872,-0.436661 -1.765677,-1.010737 -4.523441,-1.275723 -5.219802,-0.501557 -9.307265,-3.207674 -10.241571,-6.780463 -0.671444,-2.567606 4.116858,-4.381285 9.85847,-3.734123 2.492934,0.28099 5.565584,0.0234 6.82811,-0.572413 3.04403,-1.436552 4.93534,-5.906779 4.102814,-9.697247 -1.016085,-4.626202 0.343781,-10.990465 2.341223,-10.957083 3.017626,0.05043 7.289323,5.501836 7.904362,10.087295 0.402363,2.99984 1.398721,4.974119 3.330702,6.599774 2.650859,2.230551 2.698812,2.435366 1.250105,5.339368 -1.230071,2.465737 -1.272105,3.302264 -0.229083,4.559029 0.827413,0.996972 0.922095,1.776543 0.268772,2.212971 -0.554751,0.370582 -1.301784,1.468039 -1.660072,2.438793 -0.358288,0.970754 -1.740771,2.179173 -3.072184,2.685376 -1.331413,0.506202 -2.619765,1.511949 -2.863004,2.234992 -0.36505,1.085132 -0.721335,1.0843 -2.040952,-0.0048 -1.188208,-0.980619 -2.111764,-1.04481 -3.59688,-0.25 -2.779435,1.487509 -4.71973,1.336471 -6.567427,-0.511226 z m 86.447993,0.09295 C 130.31992,62.680549 129.16585,62 128.44565,62 c -2.24562,0 -5.40517,-5.320955 -4.31562,-7.267874 0.61813,-1.104525 0.58715,-2.392066 -0.0879,-3.653401 -1.25258,-2.340467 0.17291,-6.840277 2.44286,-7.71134 C 127.3634,43.030309 128,41.549524 128,39.843351 c 0,-3.85392 2.27516,-8.138395 5.4137,-10.194851 4.45605,-2.919716 4.60657,-2.683233 4.99731,7.8515 0.1224,3.3 0.56813,6.957646 0.99052,8.128102 1.11273,3.083428 5.11639,4.566737 10.24883,3.797079 2.67758,-0.401528 5.52487,-0.181024 7.3329,0.567887 2.86208,1.185512 2.9095,1.313623 1.49719,4.044742 -0.80218,1.551249 -2.36345,3.107668 -3.46948,3.458709 C 153.90494,57.84756 153,58.527287 153,59.007022 c 0,0.479736 -1.6875,1.011912 -3.75,1.182613 -2.75631,0.228123 -4.01157,0.906579 -4.73713,2.560365 -1.08138,2.464829 -2.95929,2.791168 -7.06941,1.228505 -1.83774,-0.698707 -3.08036,-0.694811 -3.93242,0.01233 -0.88322,0.733011 -1.61089,0.59378 -2.50081,-0.478505 z"
       id="path71104"
       inkscape:connector-curvature="0" />
    <path
       style="fill:#bdcee5"
       d="m 5.5,186.1402 c 9.071281,-4.11808 19.887142,-6.58624 34.774827,-7.93555 L 48.049654,177.5 71.034602,154.55883 94.01955,131.61766 l 23.00304,22.94117 c 17.51861,17.47149 23.65564,23.00067 25.74022,23.19073 12.69145,1.15716 23.0273,2.83403 30.09817,4.88309 C 191.81911,188.1265 194.91416,187.91828 94,187.938 3.8321826,187.95562 1.6008511,187.91029 5.5,186.1402 Z M 0.04003763,93.95 C 0.07579727,11.378208 0.23963904,1.7941321 1.5734303,4.2527777 5.4046068,11.314981 9.945725,31.965163 9.9825409,42.492185 L 10,47.48437 33.25,70.751378 56.5,94.018386 l -23,22.952544 -23,22.95255 -0.7275963,8.78826 C 8.6670052,162.06328 3.7945347,182.0993 0.83819141,185.45 0.37718614,185.9725 0.01801693,144.7975 0.04003763,93.95 Z M 185.26852,180.75 c -2.70026,-7.05625 -5.98558,-22.38795 -6.96731,-32.51451 L 177.5,139.97099 154.54623,117.00954 131.59246,94.048094 154.54623,70.99998 177.5,47.951865 178.65103,37.225933 c 1.39846,-13.031725 3.50647,-22.333203 6.7933,-29.9749966 L 187.91787,1.5 l 0.0411,92.25 c 0.0226,50.7375 -0.12148,92.25 -0.32015,92.25 -0.19867,0 -1.26529,-2.3625 -2.37026,-5.25 z M 8.5576371,180.09326 c -0.3082183,-0.49871 0.340224,-0.67122 1.440983,-0.38337 C 12.333607,180.3205 12.628767,181 10.559017,181 9.7664763,181 8.8658554,180.59197 8.5576371,180.09326 Z M 8.75,178.29502 C 7.7875,178.0521 7,177.18479 7,176.36766 7,175.55053 7.45,175.16008 8,175.5 c 0.89255,0.55163 1.4270827,-0.73696 1.1283735,-2.72014 -0.059658,-0.39608 0.8478476,-1.23195 2.0166785,-1.85749 1.69889,-0.90922 1.847327,-1.31329 0.740048,-2.01454 -1.046944,-0.66305 -0.865682,-0.88094 0.742455,-0.89252 2.669971,-0.0192 5.083028,-2.56783 3.164183,-3.34193 -1.050481,-0.42379 -1.051951,-0.69035 -0.0079,-1.4272 0.706128,-0.49834 0.995483,-1.6576 0.643011,-2.57613 -0.396282,-1.03269 -0.122978,-1.72408 0.71613,-1.81162 1.265241,-0.132 2.091466,-0.21099 7.356989,-0.70336 2.647763,-0.24759 8.994225,-5.82366 7.278994,-6.39541 C 31.075547,151.52518 32.075,151.33333 34,151.33333 c 1.925,0 2.9375,0.1875 2.25,0.41667 C 35.5625,151.97917 35,153.25417 35,154.58333 35,155.9125 34.55,157 34,157 c -0.55,0 -1,0.65973 -1,1.46607 0,0.80634 -0.771027,3.08294 -1.713394,5.0591 -1.313889,2.75525 -1.427976,3.76942 -0.489298,4.34956 0.881679,0.54491 0.521775,1.41633 -1.286606,3.11522 C 28.129816,172.28722 27,172.82019 27,172.17431 c 0,-0.70281 -1.505668,-1.14609 -3.75,-1.10402 -3.008199,0.0564 -3.354373,0.24029 -1.75,0.92971 1.962781,0.84344 1.961013,0.86074 -0.09501,0.92971 -1.152257,0.0387 -2.952257,1.0301 -4,2.20319 -1.896425,2.12331 -1.89375,2.12955 0.595012,1.38761 1.644137,-0.49015 2.157655,-0.40825 1.5,0.23924 -1.178749,1.16052 -8.239445,2.1689 -10.75,1.53527 z m 162.91667,-3.96169 C 171.3,173.96667 171,172.84167 171,171.83333 c 0,-2.67595 2.49341,-2.24058 3.81805,0.66667 0.98686,2.16593 0.89695,2.5 -0.67282,2.5 -0.99654,0 -2.1119,-0.3 -2.47856,-0.66667 z M 161,169.05902 c 0,-0.51754 0.45,-1.2191 1,-1.55902 0.55,-0.33992 1,0.0835 1,0.94098 0,0.85746 -0.45,1.55902 -1,1.55902 -0.55,0 -1,-0.42344 -1,-0.94098 z m -1.69084,-6.14986 c -0.55605,-0.55605 -1.97808,-1.08385 -3.16008,-1.17288 C 153.98636,161.57336 153.04205,160 155.10699,160 c 0.60884,0 0.84143,-0.69203 0.51686,-1.53785 -0.87044,-2.26833 2.01069,-2.93163 4.7988,-1.10479 1.68215,1.10219 2.24587,2.19421 1.87157,3.62554 -0.673,2.57358 -1.68482,3.2265 -2.98506,1.92626 z M 51.748732,153.4154 c -0.727904,-0.72791 1.668858,-5.93742 3.153914,-6.85523 0.504279,-0.31166 1.651906,-0.2846 2.550284,0.0601 1.492247,0.57263 1.49644,0.77815 0.04852,2.37809 -0.871691,0.9632 -1.453618,2.35942 -1.293172,3.1027 0.305005,1.41296 -3.298791,2.47506 -4.459548,1.3143 z m 81.491818,-1.40183 c -1.88114,-3.01219 -1.5979,-6.23461 0.50945,-5.79591 1.12754,0.23473 1.66527,1.15004 1.51179,2.57333 -0.18071,1.67581 0.28783,2.20901 1.94113,2.20901 2.13095,0 2.13624,0.0326 0.23821,1.4682 -2.52988,1.9135 -2.73556,1.89124 -4.20058,-0.45463 z m -3.69359,-9.74635 c -1.59855,-1.72397 -2.3213,-3.40287 -1.95785,-4.54799 0.31687,-0.99836 0.0339,-2.46861 -0.62894,-3.26722 -0.9624,-1.15963 -0.90292,-1.45201 0.29541,-1.45201 0.82526,0 2.11786,-0.87777 2.87245,-1.9506 0.83104,-1.18153 3.0567,-2.18761 5.64496,-2.55173 3.44971,-0.48531 4.88135,-0.16793 7.43056,1.64727 1.73667,1.23662 2.82477,1.70989 2.418,1.05173 C 145.21478,130.5385 145.35852,130 145.94098,130 c 1.2012,0 1.27436,0.5954 0.45055,3.66659 -0.4431,1.65186 -1.16041,2.06154 -3.01938,1.72445 -1.80519,-0.32734 -3.20853,0.40125 -5.40519,2.80627 -3.21394,3.51882 -3.6684,4.7941 -1.71696,4.818 0.83333,0.0102 0.75,0.33844 -0.25,0.98469 -2.39359,1.54686 -3.74962,1.18273 -6.45304,-1.73278 z m -75.518006,-0.7364 c -1.27582,-1.35805 -2.704262,-2.23149 -3.174314,-1.94098 C 50.384588,139.88035 50,139.46462 50,138.66601 c 0,-1.85842 -1.479312,-2.39465 -8.932477,-3.23788 -6.244658,-0.7065 -7.363354,-1.574 -4.317523,-3.34803 1.609182,-0.93726 1.589065,-1.02296 -0.25,-1.065 -1.507951,-0.0345 -1.666115,-0.25728 -0.642878,-0.90563 0.746417,-0.47295 4.594835,-0.89761 8.552041,-0.94369 3.957205,-0.0461 8.2965,-0.5237 9.642878,-1.06139 2.045649,-0.81695 2.127486,-0.98803 0.497959,-1.041 -1.341265,-0.0436 -1.627594,-0.3858 -0.917217,-1.09617 1.143529,-1.14353 4.640593,-0.21857 3.872484,1.02426 -0.265785,0.43005 0.186799,1.33799 1.005743,2.01766 0.853951,0.70871 1.48899,2.90287 1.48899,5.14469 0,2.54544 0.521218,4.10895 1.494256,4.48234 0.821841,0.31537 1.240747,0.98359 0.930902,1.48493 -0.309845,0.50134 -0.967542,0.66172 -1.461549,0.35641 -0.494008,-0.30531 -1.47116,0.36235 -2.171449,1.48369 -1.618756,2.59204 -1.952087,2.56192 -4.763206,-0.43038 z M 44.8125,138.31689 c 0.721875,-0.28887 1.584375,-0.25335 1.916667,0.0789 0.332291,0.33229 -0.258334,0.56864 -1.3125,0.52522 -1.164943,-0.048 -1.4019,-0.28494 -0.604167,-0.60416 z M 89.654988,128.17126 C 88.744744,127.16545 88,125.14045 88,123.67126 88,121.66667 87.50086,121 86,121 c -2.729048,0 -2.665569,-4.08769 0.102379,-6.59265 C 89.088827,111.70465 91,107.61504 91,103.92722 91,101.1459 90.804817,100.9171 89.41566,102.07 c -0.871387,0.72318 -3.070505,4.26578 -4.88693,7.87244 -4.61155,9.1566 -6.940852,11.84008 -9.121377,10.50831 -1.342456,-0.81991 -2.220491,-0.5467 -4.017195,1.25 C 68.283757,124.80715 64,124.81976 64,121.72251 c 0,-1.25263 0.776082,-3.38551 1.724627,-4.73975 0.948545,-1.35423 1.594484,-3.45537 1.43542,-4.66919 -0.302799,-2.31068 2.930618,-4.8705 11.347701,-8.98372 C 87.44303,98.963405 89.126235,97 83.934259,97 80.322453,97 77.688084,98.261388 73.25066,102.11552 69.775096,105.13423 67,105.03544 67,101.89301 67,100.46676 66.278183,100 64.07258,100 60.651171,100 56.768478,95.843328 57.707876,93.186176 58.836106,89.994899 61.316032,88 64.154988,88 66.333333,88 67,87.531344 67,86 67,83.270952 71.087693,83.334431 73.592652,86.102379 76.306969,89.101665 80.389209,91 84.124654,91 h 3.223974 L 85.075537,88.580406 C 83.825337,87.249629 81.384396,85.586212 79.651223,84.883925 77.91805,84.181638 74.325985,82.284389 71.668856,80.667816 67.861422,78.35141 66.949804,77.299952 67.366704,75.705725 67.674505,74.528689 67.081232,72.647435 65.947848,71.20657 64.876531,69.844612 64,67.665969 64,66.365141 c 0,-3.216521 4.246427,-3.209623 7.468182,0.01213 1.600626,1.600626 2.707254,2.047291 3.387328,1.367217 1.884315,-1.884315 4.024819,0.131671 8.181736,7.705789 2.280513,4.155211 5.034161,8.566258 6.119218,9.802325 L 91.129296,87.5 90.677835,82.664387 C 90.332795,78.968645 89.492521,77.071629 87.113187,74.61678 83.496966,70.885786 82.929061,67 86,67 c 1.531344,0 2,-0.666667 2,-2.845012 0,-2.90289 1.995348,-5.313812 5.405457,-6.531258 C 96.079656,56.669011 100,60.563223 100,64.174314 100,66.333333 100.47186,67 102,67 c 2.72905,0 2.66557,4.087693 -0.10238,6.592652 C 98.903095,76.30266 97,80.387628 97,84.105328 c 0,3.034237 0.09666,3.117168 1.8178,1.559561 0.99979,-0.904797 2.87698,-3.787042 4.17154,-6.404988 4.7369,-9.57929 7.00051,-12.495819 9.24319,-11.909343 1.24765,0.326267 3.07883,-0.236916 4.5609,-1.40271 3.5716,-2.809417 7.20657,-2.598936 7.20657,0.417293 0,1.300828 -0.87653,3.479471 -1.94785,4.841429 -1.13785,1.44654 -1.72697,3.320929 -1.41669,4.507442 0.61799,2.363192 -1.90631,4.410026 -11.19529,9.077728 -3.33291,1.674782 -6.65051,3.756778 -7.37245,4.626659 C 100.91777,90.804002 101.14821,91 103.92722,91 c 3.68782,0 7.77743,-1.911173 10.48013,-4.897621 C 116.91231,83.334431 121,83.270952 121,86 c 0,1.531344 0.66667,2 2.84501,2 2.83896,0 5.31888,1.994899 6.44711,5.186176 C 131.23152,95.843328 127.34883,100 123.92742,100 121.66667,100 121,100.45546 121,102 c 0,2.72905 -4.08769,2.66557 -6.59265,-0.10238 C 111.68245,98.886648 107.60689,97 103.82744,97 c -3.23261,0 -3.24821,0.02245 -1.29966,1.870411 1.08472,1.028727 5.12222,3.533369 8.97222,5.565869 8.85519,4.67484 10.3183,6.04289 8.88798,8.31043 -0.85972,1.36293 -0.60305,2.08287 1.26695,3.55381 1.50596,1.1846 2.34507,2.89212 2.34507,4.77206 0,2.46985 -0.39786,2.92742 -2.54545,2.92742 -1.4,0 -3.58012,-1.03466 -4.84471,-2.29925 -1.76604,-1.76604 -2.67877,-2.05985 -3.93578,-1.26695 -2.20035,1.38795 -3.56065,-0.12216 -8.64096,-9.59264 -2.25967,-4.21236 -4.766526,-8.20496 -5.570794,-8.87244 C 97.231499,100.94724 97,101.25729 97,103.92722 c 0,3.68782 1.911173,7.77743 4.89762,10.48013 C 104.66557,116.91231 104.72905,121 102,121 c -1.53134,0 -2,0.66667 -2,2.84501 0,5.41454 -6.79026,8.25421 -10.345012,4.32625 z m 42.459292,-2.10063 c -0.85973,-0.53135 -0.96201,-1.0467 -0.29014,-1.46194 0.57071,-0.35272 1.33882,-0.15403 1.7069,0.44153 0.91846,1.4861 0.188,2.0122 -1.41676,1.02041 z M 138.5,64 c -1.18121,-0.507582 -1.42002,-0.888204 -0.58333,-0.929715 1.33112,-0.06604 0.69581,-1.469347 -0.75,-1.656652 -0.36667,-0.0475 -1.38703,-0.407382 -2.26747,-0.799734 -0.88044,-0.392352 -2.00544,-0.637698 -2.5,-0.545212 -4.09754,0.766261 -4.54159,0.06254 -4.30258,-6.818687 0.18683,-5.378966 0.6301,-7.031547 2.18232,-8.136139 1.54507,-1.099491 1.84071,-2.185128 1.42965,-5.249809 -0.28502,-2.125018 -0.10372,-4.11985 0.4029,-4.432959 0.50663,-0.313109 0.66224,-0.988195 0.3458,-1.500191 C 132.14086,33.418906 132.58352,33 133.44098,33 134.53805,33 135,33.977812 135,36.3 c 0,1.815 0.48921,3.78921 1.08713,4.387132 0.78285,0.782843 0.78285,1.275194 0,1.759017 -1.83448,1.133774 -1.20915,2.54957 1.16287,2.632798 1.2375,0.04342 1.6875,0.305921 1,0.583334 -1.95056,0.787068 -1.55406,6.113624 0.5,6.717014 6.69663,1.967163 8.95873,1.795167 11.85728,-0.901552 l 2.89272,-2.69129 0.34582,2.356773 c 0.1902,1.296226 0.72922,2.824589 1.19782,3.396362 0.55913,0.682246 -0.42649,1.09057 -2.86741,1.187907 C 147.14499,55.928128 143,57.621022 143,59.475249 143,60.313862 142.27252,61 141.38337,61 c -1.1243,0 -1.45735,0.609081 -1.09362,2 0.28766,1.1 0.45264,1.968372 0.36663,1.929715 C 140.57037,64.891058 139.6,64.472686 138.5,64 Z M 47.8125,63.316886 c 0.721875,-0.288871 1.584375,-0.253344 1.916667,0.07895 0.332291,0.332292 -0.258334,0.568641 -1.3125,0.52522 -1.164943,-0.04798 -1.4019,-0.284941 -0.604167,-0.604167 z m -3.410714,-4.057957 c -1.251884,-1.251885 -1.857306,-1.392369 -2.154762,-0.5 -0.619442,1.858325 -3.047213,1.497296 -4.960898,-0.737727 -1.254646,-1.465319 -1.896857,-1.659937 -2.4749,-0.75 -0.55264,0.86995 -0.785072,0.737421 -0.795913,-0.453814 -0.0084,-0.925437 -0.921847,-1.970335 -2.029834,-2.321997 -1.107986,-0.351661 -1.737468,-1.087664 -1.398849,-1.635561 0.338619,-0.547898 1.244652,-0.754815 2.013407,-0.459816 0.768754,0.294999 2.410737,0.129201 3.648849,-0.36844 L 38.5,51.126773 36.309017,51.063386 c -1.205041,-0.03486 -2.516361,-0.589858 -2.914045,-1.233325 -0.492974,-0.797649 -0.167516,-0.956755 1.022771,-0.5 C 35.37795,49.698528 37.278328,50 38.640804,50 c 1.362477,0 2.223529,0.410497 1.91345,0.912215 -0.639816,1.035244 2.018349,0.848516 3.083468,-0.216604 C 44.020308,50.313025 45.592501,50 47.131483,50 48.906177,50 50.321132,49.268477 51,48 51.588702,46.9 51.774435,46 51.412739,46 51.051043,46 51.315311,45.325 52,44.5 52.860104,43.463637 52.897951,43 52.122445,43 51.5051,43 51,42.298442 51,41.440983 51,40.583524 51.45,40.160081 52,40.5 c 0.55,0.339919 1,0.141476 1,-0.440983 C 53,39.476558 52.564123,39 52.031385,39 51.498646,39 51.32399,38.319269 51.64326,37.487265 c 0.31927,-0.832004 0.08405,-2.110908 -0.522708,-2.842009 -1.157606,-1.394829 -0.541003,-2.65001 1.296115,-2.638423 1.406027,0.0089 6.068408,6.841425 5.236266,7.673567 -0.34957,0.34957 -0.134385,1.239486 0.478188,1.977591 C 58.924087,42.613457 58.930628,43 58.15383,43 c -0.600083,0 -0.832039,0.675 -0.515456,1.5 0.316582,0.825 1.314959,1.503511 2.218615,1.507802 2.454794,0.01166 4.329455,4.592574 2.500578,6.110407 -0.783297,0.650079 -1.260529,1.672905 -1.060515,2.272948 0.200014,0.600042 -0.215878,1.670526 -0.924205,2.378853 -0.708327,0.708327 -1.033843,1.949845 -0.723369,2.758929 0.894459,2.330922 -12.890874,2.086808 -15.247692,-0.27001 z M 70.521714,33 C 48.204005,10.629927 47.464966,9.9994575 43.537776,9.9801914 33.158243,9.9292714 14.246663,6.0722234 6.5,2.4262756 L 1.5,0.073038 94,0.07655663 c 80.77857,0.0030728 92.16644,0.18475551 89.86769,1.43375507 -5.34431,2.9037712 -20.33686,6.4968833 -31.68676,7.5940461 L 140.5,10.23352 117.49218,33.11676 C 104.83789,45.702542 94.255658,56 93.976122,56 93.696586,56 83.142102,45.65 70.521714,33 Z M 49,45.940983 c 0,-0.582459 0.45,-0.780902 1,-0.440983 0.55,0.339919 1,0.816476 1,1.059017 C 51,46.801558 50.55,47 50,47 49.45,47 49,46.523442 49,45.940983 Z M 29.272276,33.161156 C 28.047028,32.79752 26.129384,31.7125 25.010845,30.75 22.690658,28.753485 19.353681,28.438957 18.779124,30.162627 18.565976,30.802072 17.659634,31.432681 16.76503,31.563981 15.708099,31.719105 15.333255,31.295126 15.694664,30.35331 16.000566,29.556141 15.406909,28.264843 14.375425,27.483759 12.593622,26.134501 12.624801,26.061255 15,26.016491 c 1.760294,-0.03318 2.104645,-0.29772 1.163811,-0.894088 -0.734904,-0.465835 -1.184904,-1.921444 -1,-3.234688 C 15.452838,19.834957 15.009008,19.428952 12,18.993537 9.4572111,18.625586 8.8832921,18.241979 9.9014905,17.590894 11.064662,16.847106 10.996918,16.470915 9.5031057,15.378613 8.0012087,14.280399 7.9179171,13.80383 9,12.5 10.084426,11.193347 9.9859123,10.702133 8.3983847,9.500186 6.6725361,8.193514 6.9089857,8.0964276 11,8.4319612 c 2.475,0.2029926 5.317824,0.4138438 6.317388,0.4685581 1.300789,0.071203 1.649525,0.6283692 1.226848,1.9601057 -0.816609,2.572907 2.454898,6.460674 4.708777,5.595779 0.954525,-0.366285 1.440938,-1.18132 1.080918,-1.811189 -0.36002,-0.629868 -0.286339,-0.811619 0.163734,-0.403891 0.450074,0.407728 1.506474,0.182728 2.347557,-0.5 1.275389,-1.035267 1.425028,-0.962964 0.90145,0.435563 -0.61867,1.652527 1.230716,4.039046 2.898068,3.739779 2.374382,-0.42617 2.562404,0.249944 0.475921,1.711373 -1.278393,0.895422 -1.941021,1.907922 -1.472506,2.25 2.256401,1.647475 5.444602,7.45381 5.165432,9.407258 -0.337508,2.361653 -2.003817,2.925737 -5.541311,1.875859 z M 160.51277,30.020667 c -0.33289,-0.538634 -0.13445,-1.85905 0.44099,-2.934259 C 161.52919,26.011199 162,24.012654 162,22.645197 c 0,-1.944919 0.64791,-2.628592 2.9756,-3.139838 C 168.55208,18.719833 170,19.455743 170,22.059017 170,23.126558 170.4875,24 171.08333,24 c 2.52259,0 0.0127,2.443616 -2.65497,2.584842 -4.16282,0.220383 -4.14128,0.209358 -4.71811,2.415158 -0.5556,2.124614 -2.19231,2.647067 -3.19748,1.020667 z M 172.01531,14.75 c 0.0281,-2.294638 1.62507,-3.825228 3.31464,-3.176881 2.11495,0.811582 2.09997,1.380038 -0.0799,3.034835 -2.2194,1.684763 -3.25414,1.730202 -3.23469,0.142046 z"
       id="path71102"
       inkscape:connector-curvature="0" />
    <path
       style="fill:#749aca"
       d="m 3,187.57185 c 0,-0.64071 10.697971,-4.5186 16.97809,-6.15436 3.029174,-0.789 10.636969,-1.91188 16.906211,-2.49529 l 11.398621,-1.06075 22.385013,-22.43073 C 82.979692,143.09383 93.516122,133 94.082225,133 c 0.566102,0 11.162875,10.08976 23.548375,22.42169 l 22.5191,22.4217 7.67515,0.65025 c 14.40934,1.22078 30.89975,5.09854 36.17515,8.50667 0.97417,0.62936 -30.48785,0.97443 -89.75,0.98438 C 44.0625,187.99311 3,187.80733 3,187.57185 Z M 0,94.3 C 0,38.375738 0.35939305,2.970632 0.92119255,3.55 3.7907455,6.5092893 8.333375,25.534455 9.5436857,39.662204 l 0.6992483,8.162203 22.977412,23.138515 22.977412,23.138514 -22.98375,22.835984 -22.98375,22.83599 -0.687619,9.36329 C 9.1644485,154.28652 8.1809421,161.425 7.3570692,165 5.8414899,171.5765 1.0398247,186 0.36605208,186 0.16472344,186 0,144.735 0,94.3 Z m 184.98223,84.95 c -2.91866,-7.76434 -5.63142,-20.947 -6.41276,-31.1629 l -0.64344,-8.41289 -22.19769,-22.29113 c -12.20873,-12.26012 -22.33972,-22.717215 -22.51331,-23.237993 -0.17359,-0.520779 9.7974,-11.098654 22.15777,-23.50639 l 22.47339,-22.559519 0.54001,-5.289589 c 0.297,-2.909274 0.80892,-8.146003 1.1376,-11.637175 0.64249,-6.824514 4.63089,-21.7225984 6.96589,-26.0201024 1.24933,-2.2993694 1.4353,8.9092464 1.47027,88.6176884 0.022,50.1875 -0.15263,91.25 -0.38811,91.25 -0.23548,0 -1.40081,-2.5875 -2.58962,-5.75 z M 89.556704,127.77749 C 88.700517,126.55512 88,124.53012 88,123.27749 88,121.66667 87.414561,121 86,121 c -3.035038,0 -2.531941,-4.11619 0.905629,-7.40959 2.742682,-2.62765 5.899032,-11.11908 4.61162,-12.40649 -0.988799,-0.9888 -4.123418,3.05432 -7.998032,10.31608 -4.729087,8.86321 -6.039679,10.29225 -8.193277,8.9338 -1.257009,-0.7929 -2.169745,-0.49909 -3.935782,1.26695 C 70.125571,122.96534 67.945455,124 66.545455,124 64.484848,124 64,123.51515 64,121.45455 c 0,-1.4 1.069773,-3.61523 2.377273,-4.92273 1.600626,-1.60063 2.047291,-2.70726 1.367217,-3.38733 -1.876636,-1.87664 0.04041,-3.80944 7.912869,-7.97791 12.628616,-6.686866 14.410242,-8.772448 6.757028,-7.90982 -3.344966,0.377026 -5.454625,1.359144 -7.797607,3.63005 C 70.885786,104.50303 67,105.07094 67,102 67,100.46866 66.333333,100 64.154988,100 60.692874,100 58,97.255916 58,93.727963 58,90.752765 61.230726,88 64.722506,88 66.333333,88 67,87.414561 67,86 c 0,-3.05007 4.12253,-2.525319 7.450533,0.948367 2.900563,3.027536 11.266718,5.69973 12.876512,4.112827 C 88.359783,90.043142 84.620558,87.406393 75.15115,82.475249 67.74338,78.617693 65.88951,76.71049 67.74449,74.85551 68.424564,74.175436 67.977899,73.068808 66.377273,71.468182 65.069773,70.160682 64,67.945455 64,66.545455 64,64.484848 64.484848,64 66.545455,64 c 1.4,0 3.580116,1.034662 4.844703,2.299249 1.718481,1.718481 2.696188,2.048866 3.870723,1.307989 2.32469,-1.466377 3.793931,0.197818 8.809061,9.977942 4.051912,7.901727 6.181657,10.496554 7.518213,9.159998 C 92.817657,85.515676 89.57127,76.963433 86.905629,74.409587 83.468059,71.116186 82.964962,67 86,67 c 1.531344,0 2,-0.666667 2,-2.845012 0,-1.564757 0.822933,-3.589757 1.828741,-4.5 C 93.85296,56.013119 100,58.83772 100,64.328741 100,66.333333 100.49914,67 102,67 c 2.72905,0 2.66557,4.087693 -0.10238,6.592652 C 98.920984,76.286471 97,80.381732 97,84.033673 c 0,5.024015 2.070969,3.119692 7.19348,-6.614635 4.95045,-9.407362 6.97972,-11.645838 8.85627,-9.769289 0.80639,0.806395 1.74689,0.462704 3.48207,-1.272476 C 119.75357,63.155518 124,63.14862 124,66.365141 c 0,1.300828 -0.87653,3.479471 -1.94785,4.841429 -1.13338,1.440865 -1.72666,3.322119 -1.41885,4.499155 0.55639,2.127637 -3.08334,4.801531 -13.99757,10.28318 -4.52384,2.272092 -6.57435,4.405807 -5.38091,5.59925 1.2295,1.229502 9.78175,-2.016885 12.33559,-4.682526 C 116.88381,83.468059 121,82.964962 121,86 c 0,1.531344 0.66667,2 2.84501,2 1.56476,0 3.58976,0.822933 4.5,1.828741 C 131.98688,93.85296 129.16228,100 123.67126,100 121.66667,100 121,100.49914 121,102 c 0,2.98195 -3.63296,2.52945 -7.59065,-0.94545 -2.99335,-2.628195 -8.77132,-5.033612 -12.12797,-5.048973 -3.142917,-0.01438 0.74297,3.350876 9.41959,8.157563 9.5314,5.2802 11.45112,7.08477 9.55454,8.98135 -0.68007,0.68007 -0.23341,1.7867 1.36722,3.38733 1.3075,1.3075 2.37727,3.52273 2.37727,4.92273 0,2.0606 -0.48485,2.54545 -2.54545,2.54545 -1.4,0 -3.6414,-1.09594 -4.98089,-2.43543 -1.37909,-1.37909 -2.70104,-2.00568 -3.04778,-1.44463 -1.48263,2.39893 -4.09994,-0.26654 -8.89119,-9.05479 C 98.941564,100.8061 97,98.976846 97,103.96633 c 0,3.65194 1.920984,7.7472 4.89762,10.44102 C 104.66557,116.91231 104.72905,121 102,121 c -1.53134,0 -2,0.66667 -2,2.84501 0,5.65605 -7.30846,8.40809 -10.443296,3.93248 z M 71.126989,33.040702 48.141372,10.127726 37.206757,9.1067742 C 23.679264,7.8437281 13.999126,5.6934487 7.4886739,2.5054037 L 2.5,0.06254443 94,0.07130985 c 81.39159,0.0077971 91.19838,0.17243705 88.76978,1.49030025 -6.77919,3.6786842 -19.62053,6.5253955 -36.09782,8.0022831 L 139.84393,10.175902 116.97827,33.06479 94.112605,55.953677 Z"
       id="path71100"
       inkscape:connector-curvature="0" />
    <path
       style="fill:#4e608f"
       d="m 22.5,186.92692 c 1.65,-0.49565 8.625,-1.36078 15.5,-1.9225 L 50.5,183.9831 72.25,162.25008 94,140.51705 l 21.75,21.66507 21.75,21.66506 12,1.1054 c 26.11077,2.40523 17.61295,2.843 -55.5,2.85911 -45.745872,0.0101 -73.342116,-0.33142 -71.5,-0.88477 z M 0.18831422,94 C 0.19768486,51.454844 0.56623001,21.001234 1.0475459,23 1.5110985,24.925 2.4161091,31.9 3.0586807,38.5 L 4.2269925,50.5 25.854972,72.25 47.482952,94 25.869852,115.75 4.2567524,137.5 3.1034577,150.0198 c -0.6343121,6.88589 -1.5534027,13.86089 -2.0424235,15.5 C 0.52381562,167.32046 0.17839994,139.01349 0.18831422,94 Z M 186.28264,159.5 c -0.66955,-4.4 -1.46818,-11.15 -1.77473,-15 l -0.55737,-7 L 162.2338,115.75 140.51705,94 162.36027,72.13984 184.20349,50.279679 185.11415,38.88984 C 185.61501,32.625428 186.42316,25.925 186.91004,24 c 0.76968,-3.04312 0.8986,-2.561309 0.9876,3.690983 0.0577,4.051099 -0.35548,7.473946 -0.9462,7.839028 -0.73043,0.451432 -0.72819,1.034066 0.007,1.920391 0.72313,0.871318 0.97482,21.566927 0.79856,65.660968 -0.21977,54.97482 -0.43538,63.21901 -1.47476,56.38863 z M 90,128 c -1.1,-1.1 -2,-3.07252 -2,-4.38337 0,-1.54236 -0.705727,-2.56792 -2,-2.90638 -2.783669,-0.72794 -2.496884,-2.62678 1.013463,-6.71025 3.834034,-4.46 6.656187,-14 4.141525,-14 -1.49849,0 -3.851051,3.33624 -7.496803,10.63143 -4.316228,8.63683 -6.18729,10.73148 -8.453261,9.46337 -1.209063,-0.67662 -2.226757,-0.28427 -3.874593,1.49377 C 68.559527,124.57832 64,124.88196 64,122.07673 c 0,-1.05781 1.09239,-3.22151 2.427534,-4.80824 1.650852,-1.96193 2.146959,-3.33894 1.55059,-4.30389 -1.305321,-2.11205 1.507506,-4.67794 9.521876,-8.68597 9.951656,-4.976863 13.314549,-8.333536 8.25,-8.234737 -4.000446,0.07804 -9.733897,2.665917 -11.840931,5.344577 C 71.374635,104.61048 67,104.99769 67,102 c 0,-1.46667 -0.666667,-2 -2.5,-2 -3.002809,0 -6.5,-3.228176 -6.5,-6 0,-2.771824 3.497191,-6 6.5,-6 1.833333,0 2.5,-0.533333 2.5,-2 0,-3.121446 3.734695,-2.472412 8.012671,1.392482 3.626277,3.276124 11.213912,5.717922 12.804713,4.120721 C 88.803832,90.522786 84.417776,87.234821 77.503036,83.781148 69.570822,79.819283 66.79308,77.25515 67.996813,75.005955 68.688491,73.713543 68.307283,72.758362 66.458147,71.150558 65.069512,69.943156 64,67.922628 64,66.506613 64,64.487032 64.495024,64 66.547749,64 c 1.423841,0 3.556108,1.088038 4.833564,2.466436 1.594419,1.720406 2.60297,2.149281 3.334354,1.417897 1.735543,-1.735543 4.898326,1.019715 7.45197,6.491786 C 85.366277,81.230317 89.744119,88 90.977976,88 c 1.31759,0 1.313283,-4.10373 -0.008,-7.578845 -0.566487,-1.489974 -2.366487,-4.396526 -4,-6.459004 C 83.502014,69.583433 83.142069,67 86,67 c 1.466667,0 2,-0.666667 2,-2.5 0,-3.002809 3.228176,-6.5 6,-6.5 2.771824,0 6,3.497191 6,6.5 0,1.833333 0.53333,2.5 2,2.5 3.12145,0 2.47241,3.734695 -1.39248,8.012671 -2.163758,2.395019 -3.648481,5.270304 -4.099285,7.938585 -1.397493,8.271692 1.942946,6.081695 7.467165,-4.895486 4.31453,-8.573402 7.42967,-12.050696 9.20511,-10.275257 0.84434,0.844341 1.87765,0.506892 4.0531,-1.323629 C 118.83952,65.105598 121.01892,64 122.07673,64 c 2.78067,0 2.50665,4.507527 -0.454,7.468182 -1.42821,1.428211 -2.01396,2.740587 -1.46722,3.287328 1.80492,1.804916 -0.43325,4.142078 -7.47998,7.810819 C 104.16183,86.998815 100,89.79025 100,91.068094 100,93.684612 110.01513,90.7868 114.20816,86.957055 117.99664,83.496815 121,83.073604 121,86 c 0,1.414561 0.66667,2 2.27749,2 3.64669,0 6.72251,2.745243 6.72251,6 0,3.254757 -3.07582,6 -6.72251,6 -1.61082,0 -2.27749,0.58544 -2.27749,2 0,2.8144 -2.88412,2.53631 -6.5,-0.62674 C 110.87703,98.204013 105.96802,96 102.53212,96 c -5.446242,0 -2.36401,3.013549 9.13763,8.934 7.94498,4.08967 10.35062,6.44563 8.48576,8.31049 -0.54674,0.54674 0.039,1.85912 1.46722,3.28733 3.19955,3.19955 3.22904,7.46818 0.0516,7.46818 -1.27912,0 -3.37729,-1.11938 -4.66258,-2.48751 -1.80411,-1.92039 -2.64609,-2.23091 -3.69307,-1.36199 -2.02394,1.67972 -4.53052,-1.06398 -9.23744,-10.11127 -5.815565,-11.17825 -8.969549,-13.256681 -7.572985,-4.99049 0.450804,2.66829 1.935527,5.54357 4.099285,7.93859 3.8404,4.25086 4.32801,6.95526 1.39248,7.72292 -1.29427,0.33846 -2,1.36402 -2,2.90638 C 100,126.5194 96.728438,130 94,130 c -1.1,0 -2.9,-0.9 -4,-2 z m 30.60699,-8.58179 C 120.27314,118.54823 120,117.64823 120,117.41821 120,117.1882 119.325,117 118.5,117 c -1.80819,0 -1.93321,1.16679 -0.3,2.8 1.70883,1.70883 3.12315,1.4845 2.40699,-0.38179 z M 80.2713,110.6875 c 1.212235,-3.63852 0.486164,-4.24389 -3.239235,-2.70078 -3.309633,1.37089 -3.690933,2.3409 -1.782065,4.53347 1.849093,2.12392 3.959745,1.35356 5.0213,-1.83269 z m 33.12152,1.00393 c 0.88594,-1.44717 0.71929,-2.0966 -0.83395,-3.25 C 111.49125,107.64864 109.79518,107 108.78982,107 c -1.48678,0 -1.70525,0.51323 -1.17061,2.75 0.36152,1.5125 0.86205,3.11242 1.11228,3.55537 0.73119,1.29428 3.45919,0.34974 4.66133,-1.61394 z M 80.630286,78.75 c -0.331637,-1.2375 -0.609121,-2.539355 -0.616631,-2.893011 -0.032,-1.506912 -3.287431,-1.72607 -4.697277,-0.316225 -1.380025,1.380026 -1.306587,1.733137 0.727311,3.497128 3.140342,2.723603 5.35637,2.584508 4.586597,-0.287892 z M 111.5,79.5 c 1.11111,0 2,-0.666667 2,-1.5 0,-0.825 -0.61771,-1.369098 -1.37268,-1.209106 -0.87357,0.185123 -1.15768,-0.269383 -0.78139,-1.25 C 111.71664,74.574843 111.37733,74 110.43639,74 c -1.69629,0 -3.43673,3.808748 -2.66583,5.833846 0.27927,0.733615 0.78264,0.958615 1.1186,0.5 C 109.22512,79.875231 110.4,79.5 111.5,79.5 Z M 121,67.877555 c 0,-1.105462 -2.27166,-0.695439 -3.18402,0.574699 -0.37621,0.52374 -0.44864,1.333091 -0.16097,1.798559 C 118.24125,71.199366 121,69.242043 121,67.877555 Z m -51.020056,0.598279 c -0.69572,-0.838291 -1.470881,-1.31823 -1.72258,-1.066531 C 67.563866,68.1028 68.972907,70 70.181462,70 c 0.663093,0 0.587231,-0.573782 -0.201518,-1.524166 z M 72.097548,25.577351 50.695095,4.1811715 42.597548,3.5506893 C 38.143896,3.2039241 31.35,2.3756605 27.5,1.7101035 21.313122,0.640566 24.768891,0.46952873 57.25,0.23767916 c 20.2125,-0.14427647 53.2875,-0.14427647 73.5,0 32.3403,0.23084448 35.91006,0.40619217 29.75,1.46133024 -3.85,0.6594552 -10.6,1.4627447 -15,1.7850876 l -8,0.5860782 -21.50834,21.4649128 C 104.16208,37.340789 94.262078,46.994044 93.991663,46.986765 93.721249,46.979486 83.868896,37.34525 72.097548,25.577351 Z"
       id="path71098"
       inkscape:connector-curvature="0" />
    <path
       style="fill:#2e3664"
       d="m 21.112141,187.55453 c 0.901224,-0.90123 13.615168,-2.49481 21.224071,-2.66026 l 7.836212,-0.17039 21.899748,-22.09008 21.899748,-22.09008 21.53877,21.47814 c 11.84633,11.81298 21.71022,21.62321 21.91975,21.80052 0.55489,0.46954 4.94307,0.96121 14.56956,1.63245 4.675,0.32598 10.075,0.98593 12,1.46657 3.03046,0.75664 2.53856,0.88761 -3.66667,0.97624 -4.91916,0.0703 -7.2986,-0.28965 -7.58738,-1.14764 -0.3325,-0.98793 -0.7523,-0.97636 -2.00227,0.0552 -1.09677,0.90511 -4.19968,1.21649 -10.12291,1.01586 -8.52333,-0.28871 -8.54036,-0.29462 -8.07507,-2.80517 0.43162,-2.32892 0.38455,-2.30921 -0.63345,0.26535 -1.05467,2.66728 -1.36207,2.77399 -7.50386,2.60503 -3.97726,-0.10942 -6.8303,-0.68968 -7.52871,-1.53121 -1.47377,-1.77579 -4.79561,-1.73768 -5.48657,0.0629 -0.41608,1.08426 -2.87972,1.43683 -10.46862,1.49814 -8.860241,0.0716 -12.252905,-0.80991 -8.67449,-2.25383 0.979059,-0.39506 0.972257,-0.5215 -0.03139,-0.58333 -0.704761,-0.0434 -1.540406,0.59605 -1.856989,1.42105 -0.42859,1.11689 -2.208429,1.5 -6.968615,1.5 C 78.377001,188 77,187.67691 77,186.5 c 0,-1 -1,-1.5 -3,-1.5 -1.65,0 -3,0.3876 -3,0.86133 0,0.47373 1.125,0.64627 2.5,0.38342 1.375,-0.26285 2.5,-0.0298 2.5,0.51789 0,1.36217 -36.965743,1.51068 -38.599147,0.15508 -0.830017,-0.68886 -1.430959,-0.67802 -1.870842,0.0337 C 35.173586,187.52815 31.683524,188 27.774316,188 c -3.909207,0 -6.907186,-0.20046 -6.662175,-0.44547 z m 35.011947,-2.8212 c -0.987616,-0.98026 -1.10248,-0.8654 -0.559795,0.5598 0.375531,0.98622 0.934692,1.54122 1.242579,1.23333 0.307887,-0.30789 6.34e-4,-1.11479 -0.682784,-1.79313 z m 12.559026,-0.92083 c -0.319226,-0.79773 -0.556183,-0.56078 -0.604167,0.60417 -0.04342,1.05416 0.192928,1.64479 0.52522,1.3125 0.332291,-0.3323 0.367818,-1.1948 0.07895,-1.91667 z m 50.999996,0 c -0.31922,-0.79773 -0.55618,-0.56078 -0.60416,0.60417 -0.0434,1.05416 0.19292,1.64479 0.52522,1.3125 0.33229,-0.3323 0.36781,-1.1948 0.0789,-1.91667 z M 108,184.39235 c 0,-0.82763 -1.94173,-1.29565 -2.38691,-0.57533 -0.28881,0.46731 0.13009,0.84965 0.9309,0.84965 0.8008,0 1.45601,-0.12345 1.45601,-0.27432 z M 79,183 c 0,-0.55 -0.476558,-1 -1.059017,-1 -0.582459,0 -0.780902,0.45 -0.440983,1 0.339919,0.55 0.816476,1 1.059017,1 C 78.801558,184 79,183.55 79,183 Z m -18.178571,-3.07895 c 0.948192,-0.0446 1.158794,-0.29037 0.48401,-0.56485 C 59.805662,178.74614 56,180.71905 56,182.10661 c 0,0.56994 0.707143,0.3291 1.571429,-0.53518 0.864285,-0.86429 2.326785,-1.60696 3.25,-1.65038 z M 131,180.5 c -0.68469,-0.825 -1.97729,-1.49337 -2.87244,-1.48526 -1.0946,0.01 -0.80891,0.469 0.87244,1.40195 3.30982,1.83657 3.46028,1.84284 2,0.0833 z m -5.27083,-1.10417 c -0.3323,-0.33229 -1.1948,-0.36781 -1.91667,-0.0789 -0.79773,0.31922 -0.56078,0.55618 0.60417,0.60416 1.05416,0.0434 1.64479,-0.19293 1.3125,-0.52522 z m -46.000003,-2 c -0.332292,-0.33229 -1.194792,-0.36781 -1.916667,-0.0789 -0.797733,0.31922 -0.560776,0.55618 0.604167,0.60416 1.054166,0.0434 1.644791,-0.19293 1.3125,-0.52522 z m 5.638397,-0.18154 c 0.267079,-0.43215 -0.381363,-0.78572 -1.440983,-0.78572 C 82.866962,176.42857 82,176.78214 82,177.21429 82,177.64643 82.648442,178 83.440983,178 c 0.792541,0 1.659502,-0.35357 1.926581,-0.78571 z m 20.361606,0.18154 c -0.3323,-0.33229 -1.1948,-0.36781 -1.91667,-0.0789 -0.79773,0.31922 -0.56078,0.55618 0.60417,0.60416 1.05416,0.0434 1.64479,-0.19293 1.3125,-0.52522 z m -20.322279,-4.54648 c -0.245449,-0.39715 -1.306236,-0.65731 -2.357303,-0.57813 -2.488388,0.18744 -1.800661,1.30021 0.803574,1.30021 1.1,0 1.799178,-0.32494 1.553729,-0.72208 z M 109.66228,166.75 c -0.27741,-0.6875 -0.50439,-0.125 -0.50439,1.25 0,1.375 0.22698,1.9375 0.50439,1.25 0.27741,-0.6875 0.27741,-1.8125 0,-2.5 z m -19.694083,0 c -0.01749,-0.6875 -0.692492,-2.12351 -1.5,-3.19113 C 87.187938,161.86622 87,161.83422 87,163.30887 87,164.23899 87.498145,165 88.106989,165 c 0.608844,0 0.847967,0.675 0.531385,1.5 -0.316583,0.825 -0.139728,1.5 0.393011,1.5 0.532738,0 0.954303,-0.5625 0.936812,-1.25 z m 9.462705,0.1382 c -0.377923,-0.6115 -0.06698,-1.5046 0.690978,-1.98469 0.90607,-0.57389 0.97017,-0.87813 0.18714,-0.8882 -1.549616,-0.0199 -2.597477,1.70894 -1.80902,2.98469 0.339919,0.55 0.843034,1 1.118034,1 0.275,0 0.19079,-0.50031 -0.187132,-1.1118 z m -15.701735,-1.49237 c -0.332292,-0.33229 -1.194792,-0.36781 -1.916667,-0.0789 -0.797733,0.31922 -0.560776,0.55618 0.604167,0.60416 1.054166,0.0434 1.644791,-0.19293 1.3125,-0.52522 z m 9.701545,-10.29845 c -0.263082,-0.26308 -1.255117,0.33267 -2.204522,1.3239 -1.649287,1.72194 -1.627977,1.74325 0.478332,0.47833 1.212486,-0.72815 1.989272,-1.53915 1.72619,-1.80223 z M 112,187 c 0,-0.55 0.87344,-1 1.94098,-1 1.06754,0 2.2191,0.45 2.55902,1 0.35052,0.56716 -0.48962,1 -1.94098,1 C 113.15156,188 112,187.55 112,187 Z M 0.28262937,159.316 c 0.0805768,-5.40749 0.47739587,-7.97163 1.16966003,-7.55804 0.5762408,0.34428 0.5247679,-0.0229 -0.1143842,-0.816 C -0.11060508,149.14461 -0.16225993,112 1.2837509,112 c 0.5221719,0 0.734346,1.125 0.4714981,2.5 -0.2628479,1.375 -0.090308,2.5 0.3834229,2.5 1.453006,0 0.9537508,-5.0273 -0.5568206,-5.60696 C -0.3282988,110.66004 -0.62480401,92.014962 1.2547092,90.821419 2.2470141,90.191279 2.2460574,90.027515 1.25,90.015313 0.37977567,90.004652 0,88.025167 0,83.5 0,78.388889 0.32051282,77 1.5,77 3.4732714,77 3.4732714,72.63767 1.5,71 -0.8637378,69.038272 -0.25969234,67.998062 2.8787198,68.625744 4.6684283,68.983686 6.0509182,68.72663 6.5332283,67.946235 7.0490949,67.111546 6.9031655,66.941813 6.097673,67.439635 5.4314339,67.851393 3.8261042,67.922187 2.5302739,67.596954 0.19269173,67.010258 0.17430923,66.89387 0.18577443,52.752811 0.19213012,44.913765 0.62478217,37.977562 1.1472234,37.339028 1.7546559,36.596616 1.7190846,35.944419 1.0485583,35.530011 0.4604848,35.166561 0.037747,31.723974 0.08595274,27.690983 0.15660034,21.78046 0.33273816,21.034194 1.0751317,23.5 1.5719061,25.15 2.2285704,30.1 2.5343856,34.5 3.7561721,52.078785 1.6026543,48.548328 25.705406,72.486357 L 47.27928,93.912792 25.13964,116.01776 3,138.12273 2.9533213,146.31136 C 2.927648,150.81511 2.288801,157.425 1.5336613,161 l -1.37298129,6.5 z M 7.960131,130.54804 c 0.6627612,-0.79858 0.9950619,-2.26108 0.738446,-3.25 -0.3740905,-1.44163 -0.4895679,-1.3619 -0.5825756,0.40227 C 8.0522006,128.91048 7.2125,130.3593 6.25,130.9199 c -0.9625,0.56061 -1.2426001,1.03297 -0.6224447,1.04969 0.6201554,0.0167 1.6698144,-0.62297 2.3325757,-1.42155 z m -0.3814084,-9.32185 c -1.7219394,-1.64929 -1.7432494,-1.62798 -0.4783312,0.47833 0.7281443,1.21249 1.5391477,1.98927 1.8022299,1.72619 0.2630821,-0.26308 -0.3326723,-1.25511 -1.3238987,-2.20452 z M 4.7291667,119.39583 C 4.396875,119.06354 3.534375,119.02802 2.8125,119.31689 c -0.7977327,0.31922 -0.5607763,0.55618 0.6041667,0.60416 1.0541666,0.0434 1.6447916,-0.19292 1.3125,-0.52522 z M 22,109.61658 c 0,-0.21089 -1.111382,-0.59588 -2.469738,-0.85555 -1.358355,-0.25966 -2.231798,-0.0871 -1.940983,0.38343 C 18.101359,109.97302 22,110.39033 22,109.61658 Z m -10.720623,-4.65624 c -0.293361,-1.12182 -0.756825,-1.81623 -1.029919,-1.54313 C 9.7084648,103.9582 10.664049,107 11.374996,107 c 0.24077,0 0.197742,-0.91785 -0.09562,-2.03966 z M 21.195851,100.25 C 20.906108,98.7375 20.476062,98.077345 20.240193,98.782989 19.814846,100.05549 20.575759,103 21.329943,103 c 0.215992,0 0.155651,-1.2375 -0.134092,-2.75 z m 6.29707,-0.23855 c 0.351408,-0.568586 -0.05375,-0.73347 -0.953718,-0.38812 -0.86057,0.330232 -2.244244,0.03643 -3.07483,-0.652898 -1.257658,-1.043763 -1.404841,-0.978868 -0.880276,0.388124 0.689613,1.797104 3.934898,2.228744 4.908824,0.652894 z M 24.44113,88.468197 C 26.133783,87.187938 26.165785,87 24.69113,87 23.761008,87 23,87.417004 23,87.926676 c 0,0.509672 -0.7875,1.132471 -1.75,1.383998 -1.225201,0.320179 -1.300172,0.482573 -0.25,0.541521 0.825,0.04631 2.373508,-0.57649 3.44113,-1.383998 z M 29.5,89 C 29.160081,88.45 28.346024,88.006891 27.690983,88.015313 26.975367,88.024514 27.098708,88.41754 28,89 c 1.921123,1.241525 2.267305,1.241525 1.5,0 z M 11.345077,84.456872 c -0.325685,-0.848721 -0.806623,-1.32866 -1.068751,-1.066531 -0.262128,0.262128 -0.179978,0.956536 0.182555,1.543128 0.98605,1.595461 1.56238,1.28551 0.886196,-0.476597 z M 22.25,78.337719 c -0.6875,-0.277412 -1.8125,-0.277412 -2.5,0 -0.6875,0.277413 -0.125,0.504386 1.25,0.504386 1.375,0 1.9375,-0.226973 1.25,-0.504386 z M 8.683114,62.8125 c -0.3192263,-0.797733 -0.5561827,-0.560776 -0.6041666,0.604167 -0.043421,1.054166 0.1929276,1.644791 0.5252193,1.3125 0.3322916,-0.332292 0.3678179,-1.194792 0.078947,-1.916667 z m 0,-4 C 8.3638877,58.014767 8.1269313,58.251724 8.0789474,59.416667 8.0355263,60.470833 8.271875,61.061458 8.6041667,60.729167 8.9364583,60.396875 8.9719846,59.534375 8.683114,58.8125 Z M 4,56 C 4.825,55.466844 5.05,55.030626 4.5,55.030626 3.95,55.030626 2.825,55.466844 2,56 1.175,56.533156 0.95,56.969374 1.5,56.969374 2.05,56.969374 3.175,56.533156 4,56 Z m 182.76924,107.5 c -0.40192,-1.65 -1.03752,-8.175 -1.41246,-14.5 l -0.6817,-11.5 -21.73703,-21.84726 -21.73702,-21.847267 21.73987,-21.679217 21.73987,-21.679216 0.62026,-11.47352 c 0.75679,-13.999249 2.47822,-21.195568 2.61302,-10.92352 0.0473,3.6025 -0.40326,7.03921 -1.00118,7.637132 -0.78285,0.782843 -0.78285,1.275194 0,1.759017 1.61351,0.997207 1.45957,18.549289 -0.16287,18.569164 -0.97194,0.01191 -0.96406,0.196741 0.0354,0.830911 1.75089,1.110938 1.3959,12.758394 -0.43517,14.278047 C 184.49337,72.665359 184.60383,77 186.5,77 c 1.17949,0 1.5,1.388889 1.5,6.5 0,3.575 -0.43417,6.5 -0.96482,6.5 -0.53065,0 -1.47233,0.948312 -2.09264,2.107359 -0.85577,1.599022 -0.82887,2.382988 0.11152,3.25 0.9311,0.858443 1.07769,0.854186 0.5894,-0.01712 C 184.86181,93.945485 185.85503,91 187.10699,91 187.59814,91 188,95.451855 188,100.89301 c 0,7.8713 -0.30654,10.01064 -1.5,10.46862 -0.825,0.31658 -1.5,1.43462 -1.5,2.48454 0,1.04992 0.675,2.46914 1.5,3.15383 2.34009,1.9421 1.76936,3.08953 -1.25,2.51307 l -2.75,-0.52503 2.75,1.08931 c 2.47941,0.98213 2.75,1.57309 2.75,6.00598 0,3.2585 -0.42157,4.92183 -1.25,4.93198 -0.77413,0.009 -0.86931,0.29501 -0.25,0.75 1.42483,1.0468 2.0081,19.66675 0.58859,18.78944 -1.39291,-0.86087 -1.4207,0.71314 -0.037,2.09682 0.58617,0.58617 0.9181,3.88335 0.75,7.45 -0.24247,5.14441 -0.44479,5.81046 -1.03233,3.39843 z m -5.40276,-32.71603 c -0.41335,-0.66882 -1.06316,-2.80632 -1.44401,-4.75 -0.62437,-3.18642 -0.70378,-3.25705 -0.80747,-0.71823 -0.10983,2.68919 1.37195,6.68426 2.4792,6.68426 0.28811,0 0.18564,-0.54722 -0.22772,-1.21603 z M 180.5,111.26832 c -1.1,-0.27483 -2.33061,-1.01013 -2.73469,-1.634 -0.49719,-0.76765 -0.73963,-0.78413 -0.75,-0.051 -0.0235,1.66155 1.11002,2.42825 3.40136,2.30067 2.01513,-0.11221 2.01785,-0.13236 0.0833,-0.61568 z m -14.80701,-5.99929 c -0.25354,-0.97297 -0.47766,-0.41903 -0.49804,1.23097 -0.0204,1.65 0.18706,2.44606 0.46099,1.76903 0.27392,-0.67703 0.29059,-2.02703 0.0371,-3 z m 11.99012,-1.45653 c -0.31922,-0.79773 -0.55618,-0.56078 -0.60416,0.60417 -0.0434,1.05416 0.19292,1.64479 0.52522,1.3125 0.33229,-0.3323 0.36781,-1.1948 0.0789,-1.91667 z m 8.44445,0.4375 c 1.24387,-1.58606 1.2085,-1.62143 -0.37756,-0.37756 -1.66575,1.30637 -2.19548,2.12756 -1.37244,2.12756 0.20765,0 0.99515,-0.7875 1.75,-1.75 z m -18.39839,-5.854167 c -0.3323,-0.332291 -1.1948,-0.367818 -1.91667,-0.07895 -0.79773,0.319226 -0.56078,0.556183 0.60417,0.604167 1.05416,0.04342 1.64479,-0.192928 1.3125,-0.52522 z M 158,97.622445 c 0,-0.207656 -0.7875,-0.995156 -1.75,-1.75 C 154.66394,94.628574 154.62857,94.663944 155.87244,96.25 157.17881,97.915748 158,98.445479 158,97.622445 Z m 9.49292,-8.610991 c 0.35034,-0.56686 -0.0511,-0.734507 -0.94098,-0.393011 C 164.81952,89.283234 164.50255,90 165.94098,90 c 0.51754,0 1.21592,-0.444846 1.55194,-0.988546 z M 163.5,88 c 1.31874,-0.566682 1.48906,-0.878155 0.5,-0.914402 -0.825,-0.03024 -2.175,0.381246 -3,0.914402 -1.82797,1.181322 -0.24909,1.181322 2.5,0 z m 3.102,-4.157839 c -1.81624,-2.593037 -2.15449,-1.743008 -0.52098,1.309227 0.59456,1.110948 1.31546,1.785464 1.602,1.498926 0.28654,-0.286538 -0.19992,-1.550207 -1.08102,-2.808153 z M 183,77.5 c -0.68469,-0.825 -2.20229,-1.447799 -3.37244,-1.383999 -2.01812,0.110035 -2.02468,0.140748 -0.12756,0.597065 1.1,0.264585 2.4275,0.887384 2.95,1.383999 1.52716,1.4515 1.9075,1.038616 0.55,-0.597065 z m -1.46762,-20.58729 c 0.7261,-1.204615 0.60231,-1.210546 -0.84042,-0.04026 -0.99146,0.804231 -1.64958,2.6673 -1.5896,4.5 l 0.10236,3.127555 0.73806,-3.08729 c 0.40594,-1.69801 1.12126,-3.72301 1.5896,-4.5 z M 89.97429,127.75 c -1.282665,-1.37192 -1.937373,-3.12808 -1.677627,-4.5 0.320132,-1.69087 -0.04435,-2.25 -1.46672,-2.25 -3.085087,0 -3.337624,-2.86059 -0.512888,-5.8097 C 89.343771,112.03033 92,106.11385 92,102.53212 92,97.53879 88.825061,100.27759 84.502142,109 c -4.221906,8.5186 -7.388578,12.33914 -9.070423,10.94333 -1.09044,-0.90498 -2.061707,-0.59102 -4.48837,1.45089 -6.058627,5.09799 -9.557115,1.86552 -4.493695,-4.15202 1.528718,-1.81678 2.252828,-3.66391 1.926105,-4.9133 C 67.794621,110.10663 69.737477,108.52772 79,103.69487 87.791545,99.107763 90.403757,96 85.467881,96 c -3.579583,0 -9.32464,2.584032 -12.250828,5.51022 -3.007229,3.00723 -5.221137,3.19017 -5.927304,0.48978 -0.323897,-1.23858 -1.364016,-2 -2.732066,-2 C 62.033089,100 58,96.16114 58,93.758129 58,91.742983 62.637905,88 65.134859,88 66.160686,88 67,87.310877 67,86.468615 67,83.708029 70.003985,83.629662 72.809698,86.317055 75.969673,89.343771 81.886154,92 85.467881,92 90.655415,92 87.908312,89.065907 77.5,83.489758 c -8.891236,-4.76339 -10.280766,-6.028435 -8.945972,-8.144521 0.789192,-1.25113 0.389193,-2.248169 -1.766951,-4.404314 -5.5966,-5.5966 -2.075742,-9.579032 3.97072,-4.491269 1.845376,1.552781 3.657428,2.254523 4.949309,1.916689 2.371054,-0.620045 4.411981,1.894651 9.084634,11.193489 3.04714,6.063976 5.732467,9.249294 6.852897,8.128864 C 93.25558,86.077753 90.716406,78.028682 87.360446,74.107997 83.654784,69.778764 83.465004,67 86.874996,67 c 1.368652,0 1.800478,-0.524984 1.47032,-1.787511 C 87.755136,62.955637 91.570518,58 93.898266,58 96.245833,58 100,62.120916 100,64.69782 c 0,1.227913 0.81299,2.281519 2,2.591929 2.72774,0.71332 2.51013,2.867764 -0.63212,6.258308 C 98.263715,76.897509 96,81.924274 96,85.467881 c 0,4.981743 2.845521,2.499336 7.94131,-6.927928 1.7719,-3.278027 4.14298,-7.253952 5.26906,-8.83539 1.78187,-2.502413 2.23416,-2.688603 3.48721,-1.435556 1.25304,1.253046 1.80999,1.069572 4.29418,-1.414611 C 120.42128,63.424877 124,63.027865 124,66.076923 c 0,1.142308 -1.28448,3.361401 -2.8544,4.931319 -2.43242,2.432423 -2.64957,3.059221 -1.46887,4.239919 1.83083,1.830832 0.10139,3.390004 -9.17673,8.273218 C 100.31339,88.882748 97.317244,92 102.35078,92 c 4.00666,0 9.00869,-2.135892 12.33331,-5.266389 C 117.94393,83.6641 121,83.535878 121,86.468615 121,87.404818 121.90389,88 123.32569,88 125.89645,88 130,91.775125 130,94.140137 c 0,2.462423 -4.63884,6.187573 -6.95197,5.582674 C 121.50433,99.319126 121,99.66442 121,101.125 c 0,3.12571 -2.84375,3.39882 -5.8097,0.55794 C 112.03033,98.656229 106.11385,96 102.53212,96 c -5.234408,0 -2.29048,3.138264 7.92868,8.45206 8.82406,4.58837 10.90926,6.39711 9.42988,8.17966 -0.83594,1.00724 -0.47267,2.07634 1.50354,4.42493 1.43318,1.70324 2.60578,3.96227 2.60578,5.02008 0,2.7575 -3.23277,2.43973 -6.94335,-0.68251 -2.34859,-1.97621 -3.41769,-2.33948 -4.42493,-1.50354 -1.71339,1.42199 -3.13032,-0.21866 -8.11016,-9.39068 C 98.828431,100.01421 96,97.369552 96,102.53212 c 0,3.58173 2.656229,9.49821 5.68294,12.65818 2.6874,2.80571 2.60903,5.8097 -0.15156,5.8097 -0.96681,0 -1.53138,0.92167 -1.53138,2.5 0,2.98547 -3.223123,6.5 -5.961045,6.5 -1.078575,0 -2.907674,-1.0125 -4.064665,-2.25 z m -19.161182,-9 c 0.471935,-2.47612 -2.489685,-2.22284 -3.855792,0.32975 -0.991735,1.85308 -0.860441,2.04382 1.204601,1.75 1.274708,-0.18136 2.467745,-1.11725 2.651191,-2.07975 z M 121,119.46862 c 0,-1.59667 -2.65762,-3.14433 -3.66667,-2.13529 -0.31922,0.31923 -0.31394,1.27482 0.0117,2.12354 0.7669,1.99852 3.65492,2.00779 3.65492,0.0118 z M 81,109.30887 C 81,107.53085 80.441628,107 78.571429,107 c -1.335715,0 -3.191402,0.76283 -4.123751,1.69518 -1.593572,1.59357 -1.526931,1.8399 1.11181,4.10965 2.665988,2.29318 2.873132,2.32401 4.12375,0.61369 C 80.407457,112.42809 81,110.57875 81,109.30887 Z m 31.84699,3.82383 C 114.03115,112.10569 115,110.77152 115,110.16789 115,108.75233 111.71744,107 109.06574,107 c -2.57516,0 -2.80949,3.52068 -0.41075,6.17126 2.00186,2.21204 1.59271,2.2158 4.192,-0.0386 z M 80.984687,78.75 c -0.02675,-3.930624 -1.519882,-5.300139 -4.594093,-4.213748 -1.499941,0.530061 -2.896526,1.474016 -3.103523,2.097677 C 72.705237,78.386941 75.867882,81 78.571429,81 c 1.856389,0 2.424963,-0.53011 2.413258,-2.25 z m 32.518633,0.871234 c 1.7974,-1.314291 1.80526,-1.501343 0.16807,-4 C 112.72677,74.179555 111.27813,73 110.4522,73 108.97453,73 107,76.754992 107,79.5651 c 0,1.839857 4.01652,1.874526 6.50332,0.05613 z M 121,67.929632 C 121,66.23951 120.69012,66.095474 119,67 c -1.1,0.588702 -2,1.970368 -2,3.070368 0,1.690122 0.30988,1.834158 2,0.929632 1.1,-0.588702 2,-1.970368 2,-3.070368 z m -50,1.538983 c 0,-1.513083 -2.63652,-3.165428 -3.566667,-2.235282 -0.264225,0.264226 -0.196673,1.219818 0.150117,2.123539 C 68.379061,71.4302 71,71.515921 71,69.468615 Z M 186.66667,116.33333 C 185.6293,115.29596 185.88283,112 187,112 c 0.55,0 1,1.125 1,2.5 0,2.61806 -0.23099,2.93567 -1.33333,1.83333 z M 0,73.440983 C 0,71.989616 0.43284186,71.149477 1,71.5 2.300641,72.30384 2.300641,76 1,76 0.45,76 0,74.848442 0,73.440983 Z m 186,0.618034 c 0,-1.067541 0.45,-2.219098 1,-2.559017 0.56716,-0.350523 1,0.489616 1,1.940983 C 188,74.848442 187.55,76 187,76 c -0.55,0 -1,-0.873442 -1,-1.940983 z M 72.5,25.374603 C 60.95,13.619478 50.6,3.8030245 49.5,3.5602617 48.4,3.3174988 43,2.8784642 37.5,2.5846291 32,2.290794 26.15,1.6277259 24.5,1.1111445 21.947528,0.31201726 22.506937,0.15908341 28.25,0.08595274 32.140635,0.03641041 35,0.42360961 35,1 c 0,0.55 0.476558,1 1.059017,1 0.582459,0 0.795605,-0.4262092 0.473657,-0.9471316 -0.813749,-1.316674 18.76727,-0.90891839 19.702013,0.4102752 0.474636,0.6698491 0.740108,0.5944045 0.75,-0.2131436 C 56.994863,0.41935368 58.671023,0 61.980948,0 c 4.485886,0 5.043636,0.24976866 5.611667,2.512986 0.377335,1.5034203 0.08368,3.2108131 -0.730948,4.25 -1.245959,1.5894111 -1.205635,1.6143111 0.474536,0.2930274 1.314009,-1.0333346 1.676603,-2.2419821 1.275,-4.25 C 67.996434,-0.26783079 69.053291,-0.84564042 71,1.5 c 1.627923,1.9615274 6,1.9743316 6,0.017572 0,-1.26169647 2.938668,-1.47419705 19.736008,-1.42714752 13.993442,0.03919578 19.953852,0.39779439 20.484692,1.23242822 0.56035,0.881047 0.75253,0.8627216 0.76399,-0.072852 0.008,-0.6875 0.49563,-1.25 1.0827,-1.25 0.60993,0 0.82196,0.96429721 0.49473,2.25 l -0.57266,2.25 1.14573,-2.2223209 c 1.11412,-2.16100206 1.56797,-2.21790132 16.44819,-2.06214391 8.41635,0.0880974 15.07658,0.5256418 14.80052,0.97232091 C 151.10784,1.6345353 151.35852,2 151.94098,2 152.52344,2 153,1.55 153,1 c 0,-0.57639039 2.85936,-0.96358959 6.75,-0.91404726 10.53931,0.1342048 3.34858,1.91026936 -10.62089,2.62329396 L 137.75822,3.2896355 116.15347,25.144818 C 104.27086,37.165168 94.312756,46.9432 94.024359,46.873778 93.735961,46.804357 84.05,37.129728 72.5,25.374603 Z M 97.127555,31.25 c 1.242954,-1.584886 1.207834,-1.620926 -0.372229,-0.381976 -0.95957,0.752414 -2.647691,1.13188 -3.75138,0.843259 -1.103688,-0.288621 -1.754527,-0.116732 -1.446309,0.381976 0.928926,1.503034 4.107191,1.02186 5.569918,-0.843259 z m 3.857135,-6.666667 c 0.0204,-2.558447 -0.55192,-1.760261 -1.37439,1.916667 -0.490074,2.190916 -0.397296,2.595458 0.34401,1.5 0.55829,-0.825 1.02196,-2.3625 1.03038,-3.416667 z M 88.924411,23.727108 C 90.107099,22.18363 90.070483,22.035723 88.641444,22.584097 87.73865,22.930531 87,23.915833 87,24.773655 c 0,0.857823 0.127335,1.372178 0.282968,1.143012 0.155632,-0.229167 0.894281,-1.214468 1.641443,-2.189559 z m -5.195244,-1.331275 c -0.332292,-0.332291 -1.194792,-0.367818 -1.916667,-0.07895 -0.797733,0.319226 -0.560776,0.556183 0.604167,0.604167 1.054166,0.04342 1.644791,-0.192928 1.3125,-0.52522 z M 98.683114,20.8125 c -0.319226,-0.797733 -0.556183,-0.560776 -0.604167,0.604167 -0.04342,1.054166 0.192928,1.644791 0.52522,1.3125 0.332291,-0.332292 0.367818,-1.194792 0.07895,-1.916667 z M 88.64378,20.205893 c -1.020921,-0.216399 -2.292541,0.04287 -2.825822,0.576149 -0.626137,0.626137 0.0314,0.765512 1.856219,0.393454 2.092959,-0.426728 2.344421,-0.67819 0.969603,-0.969603 z m 15.27289,1.511139 C 103.6875,21.5614 102.6,20.7739 101.5,19.967032 99.649994,18.610023 99.602929,18.631245 100.87244,20.25 c 0.75485,0.9625 1.84235,1.75 2.41667,1.75 0.57432,0 0.85672,-0.127335 0.62756,-0.282968 z m 5.76644,-1.904532 c -0.31922,-0.797733 -0.55618,-0.560776 -0.60416,0.604167 -0.0434,1.054166 0.19292,1.644791 0.52522,1.3125 0.33229,-0.332292 0.36781,-1.194792 0.0789,-1.916667 z M 82.492921,15.011454 C 82.84326,14.444594 82.441863,14.276947 81.551938,14.618443 79.819521,15.283234 79.502551,16 80.940983,16 c 0.517541,0 1.215913,-0.444846 1.551938,-0.988546 z m 22.033539,-4.818326 c -0.30789,-0.307887 -1.11479,-6.34e-4 -1.79313,0.682784 -0.98026,0.987616 -0.8654,1.10248 0.5598,0.559795 0.98622,-0.375531 1.54122,-0.934692 1.23333,-1.242579 z M 85.25,10.337719 c -0.6875,-0.277412 -1.8125,-0.277412 -2.5,0 -0.6875,0.277413 -0.125,0.504386 1.25,0.504386 1.375,0 1.9375,-0.226973 1.25,-0.504386 z m -27,-3.1710523 C 57.2875,6.1583333 56.323375,5.4724586 56.107499,5.6425007 55.516768,6.1078115 58.113877,9 59.122445,9 59.6051,9 59.2125,8.175 58.25,7.1666667 Z m 6,1.1710526 c -0.6875,-0.2774123 -1.8125,-0.2774123 -2.5,0 -0.6875,0.2774123 -0.125,0.504386 1.25,0.504386 1.375,0 1.9375,-0.2269737 1.25,-0.504386 z m 67.1933,-1.5602255 c 0.85618,-1.2223785 1.54075,-2.6848785 1.52126,-3.25 C 132.94508,2.9623722 132.30978,3.625 131.55279,5 130.58956,6.749624 129.0244,7.6825199 126.33822,8.1080947 L 122.5,8.7161894 l 3.6933,0.1419053 c 2.78312,0.1069342 4.07693,-0.4058083 5.25,-2.0806009 z M 93.97104,2.9609398 C 91.617092,1.4722573 90.423858,1.8582295 92.557298,3.418239 93.624055,4.1982704 94.709531,4.6238025 94.969467,4.363866 95.229404,4.1039294 94.780111,3.4726126 93.97104,2.9609398 Z m 21.29799,-0.6168765 c -0.67703,-0.2739231 -2.02703,-0.2905974 -3,-0.037054 -0.97297,0.2535434 -0.41903,0.4776623 1.23097,0.498042 1.65,0.02038 2.44606,-0.1870649 1.76903,-0.460988 z M 71.5,1 C 71.149477,0.43284186 71.989616,0 73.440983,0 74.848442,0 76,0.45 76,1 76,1.55 75.126558,2 74.059017,2 72.991476,2 71.839919,1.55 71.5,1 Z"
       id="path71096"
       inkscape:connector-curvature="0" />
  </g>
</svg>
